<svg width="24" height="24" viewBox="0 0 24 24" fill="none" xmlns="http://www.w3.org/2000/svg">
<path d="M10.5485 24C7.57525 21.5091 5.35456 19.1955 3.88642 17.0591C2.41828 14.9227 1.6842 12.9455 1.6842 11.1273C1.6842 8.4 2.57525 6.22727 4.35733 4.60909C6.13942 2.99091 8.20313 2.18182 10.5485 2.18182H11.1025C11.2872 2.18182 11.4718 2.2 11.6565 2.23636V4.44545C11.4718 4.40909 11.2918 4.38636 11.1163 4.37727C10.9409 4.36818 10.7516 4.36364 10.5485 4.36364C8.68328 4.36364 7.10895 4.99545 5.82548 6.25909C4.54201 7.52273 3.90027 9.14545 3.90027 11.1273C3.90027 12.4182 4.44505 13.8955 5.53462 15.5591C6.62419 17.2227 8.29547 19.0727 10.5485 21.1091C12.8015 19.0727 14.4728 17.2227 15.5623 15.5591C16.6519 13.8955 17.1967 12.4182 17.1967 11.1273V10.9091H19.4127V11.1273C19.4127 12.9455 18.6787 14.9227 17.2105 17.0591C15.7424 19.1955 13.5217 21.5091 10.5485 24ZM10.5485 13.0909C11.1579 13.0909 11.6796 12.8773 12.1136 12.45C12.5475 12.0227 12.7645 11.5091 12.7645 10.9091C12.7645 10.3091 12.5475 9.79545 12.1136 9.36818C11.6796 8.94091 11.1579 8.72727 10.5485 8.72727C9.93905 8.72727 9.41735 8.94091 8.98337 9.36818C8.54939 9.79545 8.3324 10.3091 8.3324 10.9091C8.3324 11.5091 8.54939 12.0227 8.98337 12.45C9.41735 12.8773 9.93905 13.0909 10.5485 13.0909ZM17.1967 8.72727H19.4127V5.45455H22.7368V3.27273H19.4127V0H17.1967V3.27273H13.8726V5.45455H17.1967V8.72727Z" fill="black"/>
</svg>
